<svg xmlns="http://www.w3.org/2000/svg">
  <symbol id="call-end" viewBox="0 -960 960 960">
    <path
      d="M480-640q118 0 232.5 47.5T916-450q12 12 12 28t-12 28l-92 90q-11 11-25.5 12t-26.5-8l-116-88q-8-6-12-14t-4-18v-114q-38-12-78-19t-82-7q-42 0-82 7t-78 19v114q0 10-4 18t-12 14l-116 88q-12 9-26.5 8T136-304l-92-90q-12-12-12-28t12-28q88-95 203-142.5T480-640z"
    />
  </symbol>
  <symbol id="chat" viewBox="0 -960 960 960">
    <path
      d="M80-80v-720q0-33 23.5-56.5T160-880h640q33 0 56.5 23.5T880-800v480q0 33-23.5 56.5T800-240H240L80-80zm160-320h320v-80H240v80zm0-120h480v-80H240v80zm0-120h480v-80H240v80z"
    />
  </symbol>
  <symbol id="chat-off" viewBox="0 -960 960 960">
    <path
      d="M80-80v-720q0-33 23.5-56.5T160-880h640q33 0 56.5 23.5T880-800v480q0 33-23.5 56.5T800-240H240L80-80z"
    />
  </symbol>
    <symbol id="play" viewBox="0 -960 960 960">
    <path
      d="M380-300l280-180-280-180v360zM480-80q-83 0-156-31.5T197-197q-54-54-85.5-127T80-480q0-83 31.5-156T197-763q54-54 127-85.5T480-880q83 0 156 31.5T763-763q54 54 85.5 127T880-480q0 83-31.5 156T763-197q-54 54-127 85.5T480-80z"
    />
  </symbol>
  <symbol id="pause" viewBox="0 -960 960 960">
    <path
      d="M360-320h80v-320h-80v320zm160 0h80v-320h-80v320zM480-80q-83 0-156-31.5T197-197q-54-54-85.5-127T80-480q0-83 31.5-156T197-763q54-54 127-85.5T480-880q83 0 156 31.5T763-763q54 54 85.5 127T880-480q0 83-31.5 156T763-197q-54 54-127 85.5T480-80z"
    />
  </symbol>
  <symbol id="video" viewBox="0 -960 960 960">
    <path
      d="M160-160q-33 0-56.5-23.5T80-240v-480q0-33 23.5-56.5T160-800h480q33 0 56.5 23.5T720-720v180l160-160v440L720-420v180q0 33-23.5 56.5T640-160H160z"
    />
  </symbol>
  <symbol id="video-off" viewBox="0 -960 960 960">
    <path
      d="M880-260L720-420v67L273-800h367q33 0 56.5 23.5T720-720v180l160-160v440zM822-26L26-822l56-56L878-82l-56 56zM160-800l560 560q0 33-23.5 56.5T640-160H160q-33 0-56.5-23.5T80-240v-480q0-33 23.5-56.5T160-800z"
    />
  </symbol>
  <symbol id="mic" viewBox="0 -960 960 960">
    <path
      d="M480-400q-50 0-85-35t-35-85v-240q0-50 35-85t85-35q50 0 85 35t35 85v240q0 50-35 85t-85 35zm-40 280v-123q-104-14-172-93t-68-184h80q0 83 58.5 141.5T480-320q83 0 141.5-58.5T680-520h80q0 105-68 184t-172 93v123h-80z"
    />
  </symbol>
  <symbol id="mic-off" viewBox="0 -960 960 960">
    <path
      d="M710-362l-58-58q14-23 21-48t7-52h80q0 44-13 83.5T710-362zM592-482L360-714v-46q0-50 35-85t85-35q50 0 85 35t35 85v240q0 11-2.5 20t-5.5 18zM440-120v-124q-104-14-172-92.5T200-520h80q0 83 58.5 141.5T480-320q34 0 64.5-10.5T600-360l57 57q-29 23-63.5 38.5T520-244v124h-80zm352 64L56-792l56-56 736 736-56 56z"
    />
  </symbol>
</svg>
